<svg width="32" height="32" viewBox="0 0 32 32" fill="none" xmlns="http://www.w3.org/2000/svg">
<path fill-rule="evenodd" clip-rule="evenodd" d="M12 9C13.1046 9 14 8.10457 14 7C14 3.13401 10.866 0 7 0C3.13401 0 0 3.13401 0 7C0 10.866 3.13401 14 7 14C8.10457 14 9 13.1046 9 12C9 10.8954 8.10457 10 7 10C5.34315 10 4 8.65685 4 7C4 5.34315 5.34315 4 7 4C8.65685 4 10 5.34315 10 7C10 8.10457 10.8954 9 12 9ZM3.46899 29.9594C4.16824 30.1424 4.91185 29.9339 5.414 29.414L29.414 5.414C30.1719 4.62924 30.1611 3.38183 29.3896 2.61036C28.6182 1.8389 27.3708 1.82806 26.586 2.586L2.586 26.586C2.06609 27.0882 1.85757 27.8318 2.04061 28.531C2.22364 29.2303 2.76973 29.7764 3.46899 29.9594ZM25 32C22.4991 32 20.1883 30.6658 18.9378 28.5C17.6874 26.3342 17.6874 23.6658 18.9378 21.5C20.1883 19.3342 22.4991 18 25 18C28.866 18 32 21.134 32 25C32 28.866 28.866 32 25 32ZM28 25C28 26.6569 26.6569 28 25 28C23.3431 28 22 26.6569 22 25C22 23.3431 23.3431 22 25 22C26.6569 22 28 23.3431 28 25Z" fill="white"/>
</svg>
