<svg width="32" height="32" viewBox="0 0 32 32" fill="none" xmlns="http://www.w3.org/2000/svg">
<path fill-rule="evenodd" clip-rule="evenodd" d="M4.65328 7.11111H23.1102C24.092 7.11111 24.8879 7.90705 24.8879 8.88889C24.8879 9.87073 24.092 10.6667 23.1102 10.6667H1.77683C1.16094 10.6663 0.589091 10.3473 0.265374 9.8233C-0.0583435 9.29934 -0.0878073 8.64516 0.187497 8.09422L3.74305 0.983111C4.04397 0.380925 4.6592 0.000359499 5.33239 0H26.6657C27.3389 0.000359499 27.9541 0.380925 28.2551 0.983111L31.8106 8.09422C32.0962 8.66476 32.0541 9.34457 31.7004 9.87556L17.4782 31.2089C17.1548 31.6937 16.6143 31.9892 16.0317 31.9999C15.449 32.0105 14.8981 31.7349 14.5573 31.2622L3.00172 15.2622C2.43615 14.4659 2.61895 13.3624 3.41111 12.791C4.20327 12.2196 5.30806 12.3943 5.88527 13.1822L15.9404 27.1058L28.1697 8.76089L25.5671 3.55556H6.43105L4.65328 7.11111Z" fill="white"/>
</svg>
