<svg width="36" height="32" viewBox="0 0 36 32" fill="none" xmlns="http://www.w3.org/2000/svg">
<path fill-rule="evenodd" clip-rule="evenodd" d="M9.6 4.8V6.4H6.39938C2.86504 6.4 0 9.26838 0 12.8054V28.7981C0 30.5664 1.43724 32 3.20024 32H32.0022C33.7689 32 35.2 30.5719 35.2 28.807V12.8054C35.2 9.26566 32.3364 6.4 28.8006 6.4H25.6V4.8C25.6 2.152 23.4517 0 20.803 0H14.397C11.7471 0 9.6 2.1493 9.6 4.8ZM22.4 6.4H12.8V4.8C12.8 3.91589 13.5152 3.2 14.397 3.2H20.803C21.6832 3.2 22.4 3.91808 22.4 4.8V6.4ZM19.2 17.6H21.5953C22.4816 17.6 23.2 18.3102 23.2 19.2C23.2 20.0837 22.4824 20.8 21.5953 20.8H19.2V23.1953C19.2 24.0816 18.4898 24.8 17.6 24.8C16.7163 24.8 16 24.0824 16 23.1953V20.8H13.6047C12.7184 20.8 12 20.0898 12 19.2C12 18.3163 12.7176 17.6 13.6047 17.6H16V15.2047C16 14.3184 16.7102 13.6 17.6 13.6C18.4837 13.6 19.2 14.3176 19.2 15.2047V17.6ZM9.6 28.8008V9.6H25.6V28.8037C20.837 28.8025 14.3635 28.8015 9.6 28.8008ZM28.8 28.8047C30.7623 28.8054 32 28.8062 32 28.807V12.8054C32 11.0325 30.5686 9.6 28.8006 9.6L28.8 28.8047ZM3.19783 28.8C3.2013 28.8 3.2 12.8054 3.2 12.8054C3.2 11.0349 4.63319 9.6 6.4 9.6V28.8004L3.19783 28.8Z" fill="white"/>
</svg>
