<svg width="32" height="32" viewBox="0 0 32 32" fill="none" xmlns="http://www.w3.org/2000/svg">
<path fill-rule="evenodd" clip-rule="evenodd" d="M8.88886 3.55556C7.90702 3.55556 7.11108 2.75962 7.11108 1.77778C7.11108 0.795938 7.90702 0 8.88886 0H23.1111C24.0929 0 24.8889 0.795938 24.8889 1.77778C24.8889 2.75962 24.0929 3.55556 23.1111 3.55556H8.88886ZM6.71997 28.4444H19.5555C20.5374 28.4444 21.3333 29.2404 21.3333 30.2222C21.3333 31.2041 20.5374 32 19.5555 32H5.3333C4.51787 32 3.80701 31.4452 3.60886 30.6542L0.0533027 16.432C-0.0797597 15.9008 0.0393841 15.338 0.376264 14.9063C0.713143 14.4746 1.23017 14.2222 1.77775 14.2222H30.2222C30.7698 14.2222 31.2868 14.4746 31.6237 14.9063C31.9606 15.338 32.0797 15.9008 31.9466 16.432L28.3911 30.6542C28.1469 31.6001 27.1853 32.1718 26.2377 31.9344C25.2901 31.697 24.7116 30.7395 24.9422 29.7902L27.9466 17.7778H4.0533L6.71997 28.4444ZM3.55552 8.88889C3.55552 9.87073 4.35146 10.6667 5.3333 10.6667H26.6666C27.6485 10.6667 28.4444 9.87073 28.4444 8.88889C28.4444 7.90705 27.6485 7.11111 26.6666 7.11111H5.3333C4.35146 7.11111 3.55552 7.90705 3.55552 8.88889Z" fill="white"/>
</svg>
