<svg width="82" height="74" viewBox="0 0 82 74" fill="none" xmlns="http://www.w3.org/2000/svg">
<path fill-rule="evenodd" clip-rule="evenodd" d="M80.6159 61.605L48.1599 4.71728L48.1618 4.72098C44.574 -1.57274 37.4282 -1.57459 33.8386 4.72098L1.38447 61.6087C-2.19586 67.8857 1.48698 74 8.76507 74H73.2335C80.506 74 84.1981 67.8894 80.6159 61.605ZM8.76507 66.6C7.15103 66.6 7.12493 66.5593 7.87045 65.255V65.2532L40.3246 8.36734C40.3801 8.26989 40.4307 8.1798 40.4772 8.09707C40.7382 7.63253 40.8687 7.40025 40.9993 7.40025C41.1298 7.40025 41.2603 7.63253 41.5213 8.09707C41.5678 8.1798 41.6185 8.26989 41.674 8.36734L74.1281 65.255C74.8717 66.5556 74.8456 66.6 73.2335 66.6H8.76507ZM40.9993 61.05C43.0579 61.05 44.7268 59.3934 44.7268 57.3499C44.7268 55.3065 43.0579 53.6499 40.9993 53.6499C38.9406 53.6499 37.2717 55.3065 37.2717 57.3499C37.2717 59.3934 38.9406 61.05 40.9993 61.05ZM37.2717 46.2499V27.7499C37.2717 25.7064 38.9406 24.0498 40.9993 24.0498C43.0579 24.0498 44.7268 25.7064 44.7268 27.7499V46.2499C44.7268 48.2934 43.0579 49.9499 40.9993 49.9499C38.9406 49.9499 37.2717 48.2934 37.2717 46.2499Z" fill="#E41D47"/>
</svg>
