<svg width="60" height="60" viewBox="0 0 60 60" fill="none" xmlns="http://www.w3.org/2000/svg">
<path fill-rule="evenodd" clip-rule="evenodd" d="M32.675 4.676C35.715 1.66 39.736 0 44 0C52.822 0 60 7.178 60 16C60 20.274 58.335 24.292 55.313 27.313L55.295 27.295C55.138 27.4881 54.94 27.687 54.728 27.8999L54.712 27.916L41.481 41.142C41.44 41.21 41.39 41.274 41.332 41.332C40.941 41.723 40.308 41.723 39.918 41.332H39.917L19.394 20.793C14.533 25.657 6.385 33.812 6.115 34.085L6.1 34.101C3.456 36.745 2 40.26 2 44C2 51.72 8.28 58 16 58C19.785 58 23.334 56.507 25.992 53.797L37.148 42.647C37.538 42.258 38.172 42.257 38.562 42.648C38.952 43.039 38.952 43.672 38.562 44.062L27.413 55.205C24.383 58.294 20.327 60 16 60C7.177 60 0 52.822 0 44C0 39.726 1.664 35.708 4.686 32.687L4.704 32.705C4.86114 32.5108 5.05925 32.3118 5.27042 32.0996L5.286 32.084L18.687 18.672C18.875 18.484 19.129 18.379 19.394 18.379C19.659 18.379 19.914 18.484 20.102 18.672L40.605 39.19C41.1385 38.6567 41.9393 37.8562 42.8883 36.9076C46.9356 32.862 53.6792 26.1212 53.889 25.909C53.8917 25.907 53.894 25.9045 53.8961 25.9021C53.8971 25.901 53.898 25.9 53.899 25.899C56.544 23.255 58 19.74 58 16C58 8.28 51.719 2 44 2C40.267 2 36.747 3.454 34.087 6.093L22.852 17.336C22.461 17.727 21.828 17.726 21.437 17.336C21.047 16.946 21.047 16.312 21.437 15.922L32.675 4.676ZM6.568 40.672C6.751 40.151 7.324 39.876 7.843 40.062C8.364 40.246 8.637 40.817 8.453 41.337C8.153 42.191 8 43.087 8 44C8 44.946 8.163 45.872 8.486 46.752C8.676 47.27 8.409 47.845 7.89 48.035C7.777 48.076 7.661 48.096 7.547 48.096C7.139 48.096 6.756 47.845 6.608 47.439C6.204 46.338 6 45.181 6 44C6 42.859 6.191 41.74 6.568 40.672Z" fill="white"/>
<path d="M48.5272 9.403C48.0722 9.09 47.9572 8.468 48.2692 8.013C48.5832 7.558 49.2072 7.444 49.6602 7.755C52.3772 9.623 54.0002 12.706 54.0002 16C54.0002 16.552 53.5522 17 53.0002 17C52.4472 17 52.0002 16.552 52.0002 16C52.0002 13.364 50.7012 10.898 48.5272 9.403" fill="white"/>
</svg>
