<svg width="60" height="61" viewBox="0 0 60 61" fill="none" xmlns="http://www.w3.org/2000/svg">
<path fill-rule="evenodd" clip-rule="evenodd" d="M43.691 44.656C44.098 44.287 44.733 44.318 45.103 44.728C45.473 45.138 45.441 45.77 45.031 46.141C42.17 48.725 38.577 50.008 34.989 50.008C31.142 50.009 27.302 48.534 24.377 45.609L14.377 35.609C9.86395 31.096 8.72295 24.441 11.311 18.823L3.12495 19.992C1.98795 20.159 0.856953 19.54 0.317953 18.461C-0.199047 17.428 -0.218047 15.791 1.27695 14.295L14.277 1.29503C15.749 -0.19897 17.381 -0.19197 18.415 0.31303C19.502 0.84503 20.129 1.97903 19.975 3.13503L19.288 8.44303C19.217 8.99103 18.709 9.37703 18.168 9.30703C17.62 9.23603 17.234 8.73403 17.305 8.18603L17.992 2.87403C18.034 2.56403 17.854 2.26503 17.536 2.10903C17.007 1.85203 16.319 2.07303 15.697 2.70403L11.304 7.09603L13.784 10.402C14.115 10.844 14.026 11.471 13.584 11.802C13.404 11.937 13.193 12.002 12.985 12.002C12.681 12.002 12.38 11.864 12.184 11.603L9.87595 8.52503L7.67195 10.728L8.43095 11.108C8.92495 11.355 9.12495 11.956 8.87795 12.45C8.70295 12.8 8.34995 13.002 7.98295 13.002C7.83295 13.002 7.67995 12.969 7.53695 12.897L6.18095 12.219L2.69095 15.709C2.05995 16.341 1.84095 17.035 2.10695 17.567C2.26295 17.879 2.55195 18.054 2.84295 18.013L13 16.561C13.391 16.509 13.77 16.682 13.982 17.009C14.176 17.311 14.185 17.687 14.024 18.002H32.984C33.537 18.002 33.984 18.45 33.984 19.002C33.984 19.555 33.537 20.002 32.984 20.002H12.979C12.16 21.93 11.845 23.984 12.001 26.002H40.984C41.537 26.002 41.984 26.45 41.984 27.002C41.984 27.555 41.537 28.002 40.984 28.002H12.316C12.843 30.195 13.948 32.27 15.615 34.002H44.984C45.537 34.002 45.984 34.45 45.984 35.002C45.984 35.555 45.537 36.002 44.984 36.002H17.599L23.599 42.002H41.984C42.537 42.002 42.984 42.45 42.984 43.002C42.984 43.555 42.537 44.002 41.984 44.002H25.599L25.791 44.195C30.69 49.094 38.552 49.299 43.691 44.656ZM45.705 58.712L58.705 45.712C60.2 44.217 60.18 42.58 59.664 41.546C59.124 40.469 58.005 39.848 56.856 40.015L48.662 41.186C51.259 35.578 50.118 28.923 45.59 24.396L35.59 14.396C29.919 8.72503 20.83 8.50603 14.899 13.897C14.491 14.269 14.461 14.901 14.832 15.31C15.204 15.718 15.835 15.748 16.245 15.376C21.383 10.705 29.259 10.894 34.176 15.81L44.176 25.81C48.532 30.165 49.274 36.79 45.982 41.918C45.771 42.248 45.771 42.67 45.982 42.999C46.195 43.329 46.577 43.506 46.965 43.448L57.139 41.995C57.429 41.956 57.719 42.128 57.874 42.44C58.14 42.972 57.922 43.666 57.291 44.298L53.797 47.791L50.431 46.108C49.938 45.86 49.337 46.061 49.089 46.555C48.842 47.049 49.042 47.65 49.537 47.897L52.306 49.282L49.263 52.325L48.878 51.555C48.63 51.061 48.031 50.862 47.537 51.108C47.042 51.355 46.842 51.956 47.089 52.45L47.772 53.816L44.285 57.303C43.664 57.935 42.977 58.156 42.445 57.898C42.127 57.742 41.948 57.443 41.986 57.16L42.847 51.679C42.932 51.133 42.56 50.621 42.014 50.536C41.467 50.447 40.957 50.822 40.871 51.368L40.006 56.873C39.852 58.028 40.479 59.162 41.566 59.694C41.949 59.881 42.413 60 42.92 60C43.786 60 44.777 59.654 45.705 58.712Z" fill="white"/>
</svg>
