<svg width="74" height="74" viewBox="0 0 74 74" fill="none" xmlns="http://www.w3.org/2000/svg">
<path fill-rule="evenodd" clip-rule="evenodd" d="M37 74C16.5659 74 0 57.4341 0 37C0 16.5659 16.5659 0 37 0C57.4341 0 74 16.5659 74 37C74 57.4341 57.4341 74 37 74ZM37 67.2727C53.719 67.2727 67.2727 53.719 67.2727 37C67.2727 20.281 53.719 6.72727 37 6.72727C20.281 6.72727 6.72727 20.281 6.72727 37C6.72727 53.719 20.281 67.2727 37 67.2727ZM31.9545 42.3347L24.2417 34.6219C22.9219 33.3472 20.824 33.3654 19.5265 34.6629C18.2291 35.9604 18.2108 38.0583 19.4855 39.3781L29.5765 49.469C30.89 50.7821 33.0191 50.7821 34.3326 49.469L54.5145 29.2872C55.7892 27.9674 55.771 25.8694 54.4735 24.572C53.176 23.2745 51.0781 23.2563 49.7583 24.531L31.9545 42.3347Z" fill="#31A691"/>
</svg>
